# xmcd
#
# Track frame offsets:
#	150
#	12975
#	25504
#	36956
#	47747
#	60069
#	70894
#	83193
#	94968
#	105973
#	118173
#	129781
#
# Disc length: 1887 seconds
#
# Revision: 0
# Processed by: cddbd v1.5.2PL0 Copyright (c) Steve Scherf et al.
# Submitted via: dBpowerAMP V4.0
#
DISCID=8b075d0c
DTITLE=Hank Williams - 20th Century Masters - Volume 2
DYEAR=2006
DGENRE=Country
TTITLE0=I'm A Long Gone Daddy
TTITLE1=I'm So Lonesome I Could Cry
TTITLE2=My Bucket's Got A Hole In It
TTITLE3=Moanin' The Blues
TTITLE4=Cold, Cold Heart
TTITLE5=I Can't Help It (If I'm Still In Love With You)
TTITLE6=Half As Much
TTITLE7=You Win Again
TTITLE8=I'll Never Get Out Of This World Alive
TTITLE9=Your Cheatin' Heart
TTITLE10=Kaw-Liga
TTITLE11=Take These Chains From My Heart
EXTD=
EXTT0=
EXTT1=
EXTT2=
EXTT3=
EXTT4=
EXTT5=
EXTT6=
EXTT7=
EXTT8=
EXTT9=
EXTT10=
EXTT11=
PLAYORDER=
